<svg xmlns="http://www.w3.org/2000/svg" version="1.1"
    xmlns:xlink="http://www.w3.org/1999/xlink"
    xmlns:svgjs="http://svgjs.com/svgjs" width="1440" height="560" preserveAspectRatio="none" viewBox="0 0 1440 560">
    <g mask="url(&quot;#SvgjsMask1008&quot;)" fill="none">
        <rect width="1440" height="560" x="0" y="0" fill="#600000"></rect>
        <path d="M1274.056,154.51C1305.032,154.484,1334.031,138.864,1349.707,112.148C1365.575,85.106,1366.74,51.154,1350.407,24.39C1334.681,-1.379,1304.208,-10.328,1274.056,-11.814C1240.219,-13.482,1201.123,-12.743,1183.451,16.16C1165.329,45.799,1179.151,83.214,1198.184,112.276C1215.18,138.229,1243.033,154.536,1274.056,154.51" fill="rgba(55, 1, 1, 0.326)" class="triangle-float3"></path>
        <path d="M777.917,539.159C801.313,537.765,817.971,519.23,829.777,498.983C841.699,478.536,850.082,454.654,839.551,433.457C827.969,410.145,803.912,393.223,777.917,394.598C753.614,395.884,738.735,418.318,726.63,439.431C714.616,460.386,703.073,484.393,714.12,505.874C725.877,528.736,752.255,540.688,777.917,539.159" fill="rgba(55, 1, 1, 0.326)" class="triangle-float3"></path>
        <path d="M1026.041,470.807C1046.531,471.756,1067.006,462.784,1077.369,445.082C1087.828,427.216,1085.5,405.023,1074.992,387.186C1064.653,369.635,1046.406,357.509,1026.041,357.952C1006.349,358.38,989.845,371.822,980.645,389.238C972.056,405.497,973.399,424.611,982.341,440.678C991.563,457.249,1007.097,469.929,1026.041,470.807" fill="rgba(55, 1, 1, 0.326)" class="triangle-float2"></path>
        <path d="M1398.966,357.449C1429.45,359.756,1459.535,345.027,1475.337,318.857C1491.651,291.838,1492.506,257.171,1475.61,230.513C1459.714,205.432,1428.66,198.209,1398.966,198.361C1369.604,198.511,1337.456,205.367,1323.665,231.289C1310.389,256.243,1325.807,284.367,1340.294,308.638C1354.269,332.052,1371.777,355.391,1398.966,357.449" fill="rgba(55, 1, 1, 0.326)" class="triangle-float2"></path>
        <path d="M1066.548,173.032C1102.186,171.162,1136.874,157.615,1155.192,126.988C1173.982,95.573,1172.344,56.961,1155.371,24.528C1136.948,-10.676,1106.281,-42.542,1066.548,-42.398C1026.991,-42.255,998.986,-8.872,978.83,25.165C958.151,60.085,939.475,102.317,960.181,137.221C980.639,171.707,1026.506,175.133,1066.548,173.032" fill="rgba(55, 1, 1, 0.326)" class="triangle-float2"></path>
        <path d="M242.75,139.687C267.863,140.515,292.162,126.801,303.607,104.432C314.246,83.639,306.448,59.463,293.863,39.786C282.405,21.871,264.009,8.75,242.75,9.279C222.282,9.788,206.318,24.622,195.86,42.224C185.116,60.307,179.353,81.68,188.472,100.634C198.829,122.162,218.873,138.899,242.75,139.687" fill="rgba(55, 1, 1, 0.326)" class="triangle-float3"></path>
        <path d="M1023.71,291.526C1049.36,290.253,1073.718,279.887,1087.37,258.134C1101.956,234.893,1105.921,205.591,1092.748,181.521C1079.088,156.559,1052.165,141.758,1023.71,141.807C995.341,141.856,969.925,157.581,955.087,181.76C939.469,207.21,932.251,239.726,948.08,265.045C963.256,289.32,995.116,292.945,1023.71,291.526" fill="rgba(55, 1, 1, 0.326)" class="triangle-float2"></path>
        <path d="M1336.802,522.384C1357.114,521.511,1376.44,512.524,1386.659,494.948C1396.93,477.282,1395.961,455.601,1386.007,437.754C1375.774,419.406,1357.81,405.773,1336.802,405.554C1315.446,405.331,1296.978,418.52,1285.783,436.707C1273.939,455.949,1267.365,480.163,1278.925,499.577C1290.296,518.673,1314.597,523.338,1336.802,522.384" fill="rgba(55, 1, 1, 0.326)" class="triangle-float3"></path>
        <path d="M1231.975,605.468C1287.619,609.125,1354.459,611.479,1382.201,563.105C1409.881,514.839,1370.451,460.67,1342.657,412.469C1314.822,364.196,1287.569,306.362,1231.975,302.577C1172.023,298.496,1118.239,341.472,1091.7,395.385C1067.809,443.92,1082.419,500.385,1112.459,545.375C1138.998,585.122,1184.285,602.333,1231.975,605.468" fill="rgba(55, 1, 1, 0.326)" class="triangle-float2"></path>
        <path d="M1474.041,742.722C1535.203,741.719,1580.347,692.689,1610.708,639.586C1640.789,586.972,1660.005,523.296,1629.407,470.981C1599.025,419.035,1534.218,406.322,1474.041,405.917C1412.936,405.505,1346.716,416.629,1315.006,468.863C1282.39,522.589,1297.823,589.847,1329.386,644.198C1360.787,698.271,1411.52,743.747,1474.041,742.722" fill="rgba(55, 1, 1, 0.326)" class="triangle-float1"></path>
        <path d="M1201.183,376.435C1242.015,376.048,1269.657,339.276,1289.053,303.342C1307.242,269.644,1316.942,229.99,1298.275,196.554C1279.207,162.4,1240.298,146.277,1201.183,145.955C1161.434,145.628,1120.986,160.41,1101.281,194.932C1081.715,229.211,1091.351,270.456,1110.383,305.034C1130.282,341.187,1159.917,376.826,1201.183,376.435" fill="rgba(55, 1, 1, 0.326)" class="triangle-float1"></path>
        <path d="M256.413,421.533C272.271,420.931,284.174,409.281,292.677,395.882C302.054,381.104,311.602,363.288,303.07,348.007C294.417,332.509,274.15,330.257,256.413,330.93C240.096,331.549,224.009,337.386,215.513,351.331C206.683,365.824,206.501,384.166,215.044,398.83C223.531,413.397,239.566,422.173,256.413,421.533" fill="rgba(55, 1, 1, 0.326)" class="triangle-float2"></path>
        <path d="M1214.277,397.353C1235.257,399.113,1255.783,387.682,1266.124,369.342C1276.302,351.292,1273.148,329.347,1262.717,311.442C1252.365,293.671,1234.83,279.6,1214.277,280.341C1194.69,281.047,1179.943,297.027,1171.53,314.729C1164.293,329.957,1167.84,346.771,1175.587,361.746C1184.219,378.43,1195.558,395.782,1214.277,397.353" fill="rgba(55, 1, 1, 0.326)" class="triangle-float2"></path>
        <path d="M91.539,484.813C138.665,485.525,183.286,462.246,207.416,421.761C232.128,380.3,232.234,329.326,209.634,286.677C185.431,241.001,143.229,202.675,91.539,203.082C40.384,203.485,-0.103,242.957,-23.375,288.514C-44.493,329.852,-41.881,378.29,-18.429,418.35C4.763,457.967,45.638,484.12,91.539,484.813" fill="rgba(55, 1, 1, 0.326)" class="triangle-float2"></path>
        <path d="M605.083,291.697C645.354,293.452,690.451,292.403,713.083,259.047C737.867,222.519,736.043,171.899,711.057,135.509C688.566,102.752,644.812,101.069,605.083,101.754C567.016,102.41,525.436,106.773,505.257,139.059C484.153,172.825,490.448,216.97,512.243,250.295C532.121,280.689,568.8,290.116,605.083,291.697" fill="rgba(55, 1, 1, 0.326)" class="triangle-float2"></path>
        <path d="M484.377,41.481C505.06,40.264,523.611,29.288,533.9,11.304C544.117,-6.553,544.513,-28.256,534.586,-46.276C524.293,-64.96,505.708,-78.782,484.377,-78.591C463.328,-78.402,446.928,-63.198,435.702,-45.391C423.444,-25.948,412.375,-2.255,423.61,17.796C435,38.124,461.116,42.85,484.377,41.481" fill="rgba(55, 1, 1, 0.326)" class="triangle-float3"></path>
        <path d="M265.947,22.261C283.658,22.023,301.421,15.912,310.633,0.783C320.188,-14.911,319.523,-34.733,310.335,-50.645C301.148,-66.555,284.313,-76.141,265.947,-76.608C246.689,-77.098,227.321,-69.56,217.465,-53.008C207.404,-36.112,208.484,-14.521,219.133,2.011C229,17.33,247.727,22.506,265.947,22.261" fill="rgba(55, 1, 1, 0.326)" class="triangle-float1"></path>
        <path d="M529.27,178.068C553.373,177.853,576.308,166.012,588.058,144.966C599.539,124.401,596.572,99.361,584.504,79.135C572.754,59.442,552.2,46.735,529.27,46.435C505.803,46.128,483.675,57.608,471.471,77.654C458.757,98.538,456.437,124.843,468.634,146.033C480.857,167.268,504.77,178.287,529.27,178.068" fill="rgba(55, 1, 1, 0.326)" class="triangle-float3"></path>
        <path d="M1469.503,672.111C1517.586,668.155,1547.474,625.749,1572.022,584.216C1597.208,541.605,1626.364,491.618,1601.47,448.836C1576.65,406.181,1518.85,408.594,1469.503,408.029C1418.632,407.446,1361.293,404.022,1332.191,445.75C1299.872,492.092,1303.605,555.584,1332.908,603.89C1361.199,650.529,1415.138,676.584,1469.503,672.111" fill="rgba(55, 1, 1, 0.326)" class="triangle-float1"></path>
        <path d="M1173.168,224.078C1202.315,223.55,1226.112,202.885,1239.987,177.247C1253.147,152.93,1253.122,124.402,1240.396,99.855C1226.471,72.995,1203.416,49.01,1173.168,48.356C1142.029,47.683,1115.544,69.449,1100.713,96.837C1086.607,122.887,1087.363,154.002,1102.022,179.745C1116.842,205.77,1143.224,224.62,1173.168,224.078" fill="rgba(55, 1, 1, 0.326)" class="triangle-float3"></path>
    </g>
    <defs>
        <mask id="SvgjsMask1008">
            <rect width="1440" height="560" fill="#ffffff"></rect>
        </mask>
        <style>
            @keyframes float1 {
                0%{transform: translate(0, 0)}
                50%{transform: translate(-20px, 0)}
                100%{transform: translate(0, 0)}
            }

            .triangle-float1 {
                animation: float1 2s infinite;
            }

            @keyframes float2 {
                0%{transform: translate(0, 0)}
                50%{transform: scale(-5px, -5px)}
                100%{transform: translate(0, 0)}
            }

            .triangle-float2 {
                animation: float2 1s infinite;
            }

            @keyframes float3 {
                0%{transform: translate(0, 0)}
                50%{transform: translate(0, -10px)}
                100%{transform: translate(0, 0)}
            }

            .triangle-float3 {
                animation: float3 3s infinite;
            }
        </style>
    </defs>
</svg>
